<svg class="main-svg" xmlns="http://www.w3.org/2000/svg" xmlns:xlink="http://www.w3.org/1999/xlink" width="700" height="500" style="" viewBox="0 0 700 500"><rect x="0" y="0" width="700" height="500" style="fill: rgb(255, 255, 255); fill-opacity: 1;"/><defs id="defs-fb884b"><g class="clips"><clipPath id="clipfb884bxyplot" class="plotclip"><rect width="527" height="360"/></clipPath><clipPath class="axesclip" id="clipfb884bx"><rect x="80" y="0" width="527" height="500"/></clipPath><clipPath class="axesclip" id="clipfb884by"><rect x="0" y="60" width="700" height="360"/></clipPath><clipPath class="axesclip" id="clipfb884bxy"><rect x="80" y="60" width="527" height="360"/></clipPath></g><g class="gradients"/><g class="patterns"/></defs><g class="bglayer"><rect class="bg" x="80" y="60" width="527" height="360" style="fill: rgb(229, 236, 246); fill-opacity: 1; stroke-width: 0;"/></g><g class="layer-below"><g class="imagelayer"/><g class="shapelayer"/></g><g class="cartesianlayer"><g class="subplot xy"><g class="layer-subplot"><g class="shapelayer"/><g class="imagelayer"/></g><g class="minor-gridlayer"><g class="x"/><g class="y"/></g><g class="gridlayer"><g class="x"><path class="xgrid crisp" transform="translate(227.21,0)" d="M0,60v360" style="stroke: rgb(255, 255, 255); stroke-opacity: 1; stroke-width: 1px;"/><path class="xgrid crisp" transform="translate(374.41,0)" d="M0,60v360" style="stroke: rgb(255, 255, 255); stroke-opacity: 1; stroke-width: 1px;"/><path class="xgrid crisp" transform="translate(521.62,0)" d="M0,60v360" style="stroke: rgb(255, 255, 255); stroke-opacity: 1; stroke-width: 1px;"/></g><g class="y"><path class="ygrid crisp" transform="translate(0,415.63)" d="M80,0h527" style="stroke: rgb(255, 255, 255); stroke-opacity: 1; stroke-width: 1px;"/><path class="ygrid crisp" transform="translate(0,365.87)" d="M80,0h527" style="stroke: rgb(255, 255, 255); stroke-opacity: 1; stroke-width: 1px;"/><path class="ygrid crisp" transform="translate(0,316.11)" d="M80,0h527" style="stroke: rgb(255, 255, 255); stroke-opacity: 1; stroke-width: 1px;"/><path class="ygrid crisp" transform="translate(0,266.35)" d="M80,0h527" style="stroke: rgb(255, 255, 255); stroke-opacity: 1; stroke-width: 1px;"/><path class="ygrid crisp" transform="translate(0,216.59)" d="M80,0h527" style="stroke: rgb(255, 255, 255); stroke-opacity: 1; stroke-width: 1px;"/><path class="ygrid crisp" transform="translate(0,166.82999999999998)" d="M80,0h527" style="stroke: rgb(255, 255, 255); stroke-opacity: 1; stroke-width: 1px;"/><path class="ygrid crisp" transform="translate(0,117.06)" d="M80,0h527" style="stroke: rgb(255, 255, 255); stroke-opacity: 1; stroke-width: 1px;"/><path class="ygrid crisp" transform="translate(0,67.3)" d="M80,0h527" style="stroke: rgb(255, 255, 255); stroke-opacity: 1; stroke-width: 1px;"/></g></g><g class="zerolinelayer"><path class="xzl zl crisp" transform="translate(80,0)" d="M0,60v360" style="stroke: rgb(255, 255, 255); stroke-opacity: 1; stroke-width: 2px;"/></g><path class="xlines-below"/><path class="ylines-below"/><g class="overlines-below"/><g class="xaxislayer-below"/><g class="yaxislayer-below"/><g class="overaxes-below"/><g class="plot" transform="translate(80,60)" clip-path="url(#clipfb884bxyplot)"><g class="scatterlayer mlayer"><g class="trace scatter tracea4664b" style="stroke-miterlimit: 2; opacity: 1;"><g class="fills"/><g class="errorbars"/><g class="lines"><path class="js-line" d="M0,101.62L2.94,224.21L5.89,93.09L8.83,201.35L11.78,211.23L14.72,264.32L17.66,276.39L20.61,135.21L23.55,130.11L26.5,97.27L29.44,87.72L32.39,98.99L35.33,106.6L38.27,71.12L41.22,64.78L47.11,295.72L50.05,71.74L52.99,323.26L55.94,141.91L58.88,91.15L61.83,72.04L64.77,166.61L67.72,115.73L70.66,117.28L73.6,129.47L76.55,107.8L79.49,120.46L82.44,91.4L85.38,202.62L88.32,74.43L91.27,88.71L94.21,68.73L97.16,74.45L100.1,33.45L103.04,39.65L105.99,115.01L108.93,92.07L111.88,110.71L114.82,85.68L117.77,78.51L120.71,59.35L123.65,57.61L126.6,150.02L129.54,75.28L132.49,75.6L135.43,80.03L138.37,52.73L141.32,51.64L144.26,47.24L147.21,162.46L150.15,104.86L153.09,92.72L156.04,73.76L158.98,62.06L161.93,41.44L164.87,18L167.82,100.88L170.76,135.59L173.7,208.34L176.65,123.67L179.59,116.95L185.48,88.89L188.42,289.92L191.37,171.47L194.31,145.22L197.26,153.5L200.2,144.57L203.15,132.78L206.09,104.78L209.03,273.85L211.98,156.14L214.92,158.28L217.87,149.05L220.81,146.61L223.75,124.61L226.7,124.59L229.64,249.27L232.59,138.1L235.53,142.95L238.47,140.61L241.42,144.79L244.36,130.01L247.31,119.56L250.25,259.22L253.2,170.12L256.14,153.78L259.08,145.04L262.03,147.43L264.97,137.83L267.92,86.05L270.86,88.51L273.8,170L276.75,151.09L279.69,164.77L282.64,169.7L285.58,143.72L288.53,163.38L291.47,277.56L294.41,183.61L297.36,176.07L300.3,181.99L306.19,146.11L309.13,176.86L312.08,74.28L315.02,196.37L317.97,170.59L320.91,167.88L323.85,159.87L326.8,140.41L329.74,139.47L332.69,342L335.63,178.21L338.58,159.52L341.52,96.9L344.46,61.04L347.41,266.96L350.35,80.68L353.3,96.72L356.24,134.97L359.18,182.44L362.13,186.1L368.02,101.67L370.96,81.7L373.91,243.05L376.85,125.36L379.79,142.28L382.74,181.39L385.68,95.48L388.63,159.7L391.57,110.88L394.51,183.86L397.46,125.44L400.4,122.82L403.35,115.96L406.29,142.08L409.23,108.09L412.18,100.28L415.12,192.81L418.07,142.28L421.01,122.05L423.96,82.34L429.84,134.77L432.79,140.99L435.73,220.48L438.68,144.4L444.56,117.1L447.51,115.33L450.45,98.51L453.4,103.02L456.34,218.37L459.28,142.31L462.23,132L465.17,107.27L468.12,107.12L471.06,88.46L474.01,63.31L476.95,173.63L479.89,135.89L482.84,111.65L485.78,120.58L488.73,108.82L491.67,106.55L494.61,223.82L497.56,265.89L500.5,244.24L503.45,175.42L506.39,217.5L509.34,157.56L512.28,139.89L515.22,135.02L518.17,232.97L521.11,137.25L524.06,131.43L527,141.78" style="vector-effect: non-scaling-stroke; fill: none; stroke: rgb(99, 110, 250); stroke-opacity: 1; stroke-width: 2px; opacity: 1;"/></g><g class="points"/><g class="text"/></g><g class="trace scatter trace41990a" style="stroke-miterlimit: 2; opacity: 1;"><g class="fills"/><g class="errorbars"/><g class="lines"><path class="js-line" d="M0,179.7L2.94,204.73L5.89,157.7L8.83,195.64L11.78,171.88L14.72,147.55L17.66,161.66L20.61,204.86L23.55,187.91L26.5,144.98L29.44,171.48L32.39,160.69L35.33,167.49L38.27,194.5L41.22,204.8L44.16,174.09L47.11,181.37L50.05,141.04L52.99,173.53L55.94,146.09L58.88,129.18L61.83,183.71L64.77,156.78L67.72,176.36L70.66,160.01L73.6,129.1L76.55,153.02L79.49,129.54L82.44,195.57L85.38,206.06L88.32,169.05L94.21,178.52L97.16,140.75L100.1,140.58L103.04,175.86L105.99,129.83L108.93,110.28L111.88,118.73L114.82,208.83L117.77,175.72L120.71,173.82L123.65,143.21L126.6,161.69L129.54,136.68L132.49,139.58L135.43,140.36L138.37,151.85L141.32,148.34L144.26,166.38L147.21,187.11L150.15,129.69L153.09,202.57L156.04,148.77L158.98,138.92L161.93,111.84L164.87,162.95L167.82,148.03L170.76,182.06L173.7,180.21L176.65,133.84L179.59,111.81L182.54,138.19L185.48,175.86L188.42,126.52L191.37,183.66L194.31,140.76L197.26,132.34L200.2,117.43L203.15,114.67L206.09,165.47L209.03,163.59L211.98,125.53L214.92,161.86L217.87,130.08L220.81,133.94L223.75,166.48L226.7,185.64L229.64,130.69L232.59,136.79L235.53,156.14L238.47,119.8L241.42,154.11L244.36,112.96L247.31,156.67L250.25,132.27L253.2,173.71L256.14,153.38L259.08,134.61L262.03,136.14L264.97,113.33L267.92,154.61L270.86,154.05L273.8,165.69L276.75,125.95L279.69,138.63L282.64,132.64L285.58,150.8L288.53,199.14L291.47,165.61L294.41,182.26L297.36,168.08L303.25,132.42L306.19,140.9L312.08,175.46L315.02,187.39L317.97,163.54L320.91,150.85L323.85,109.62L326.8,102.74L329.74,208.85L332.69,155.8L335.63,167.06L338.58,173.81L341.52,132.05L344.46,142.58L347.41,126.38L350.35,180.75L353.3,150.91L356.24,144.45L359.18,133.41L362.13,174.9L365.07,147.16L368.02,129.52L370.96,151.34L373.91,164.1L376.85,149.99L379.79,154.93L382.74,194.43L385.68,161.57L388.63,140.44L391.57,184.31L394.51,162.19L397.46,205.78L400.4,150.21L403.35,156.69L406.29,140.89L409.23,134.57L412.18,182.45L415.12,146.88L418.07,160L421.01,129.8L423.96,149.39L426.9,127.98L429.84,139.03L432.79,233.12L435.73,181.84L438.68,150.95L441.62,108.24L444.56,112.62L450.45,219.93L453.4,116.11L456.34,201.47L459.28,166L462.23,146.77L465.17,179.05L468.12,85.6L471.06,157.21L474.01,142.68L476.95,138.65L479.89,119.26L482.84,110.82L485.78,241.47L488.73,167.22L491.67,136.98L494.61,148.31L497.56,136.46L500.5,139.8L503.45,132.06L506.39,126.72L509.34,123.17L512.28,103.99L515.22,145.1L518.17,121.62L521.11,148.67L524.06,131.66L527,173.37" style="vector-effect: non-scaling-stroke; fill: none; stroke: rgb(239, 85, 59); stroke-opacity: 1; stroke-width: 2px; opacity: 1;"/></g><g class="points"/><g class="text"/></g></g></g><g class="overplot"/><path class="xlines-above crisp" d="M0,0" style="fill: none;"/><path class="ylines-above crisp" d="M0,0" style="fill: none;"/><g class="overlines-above"/><g class="xaxislayer-above"><g class="xtick"><text text-anchor="middle" x="0" y="433" transform="translate(80,0)" style="font-family: 'Open Sans', verdana, arial, sans-serif; font-size: 12px; fill: rgb(42, 63, 95); fill-opacity: 1; white-space: pre; opacity: 1;">0</text></g><g class="xtick"><text text-anchor="middle" x="0" y="433" style="font-family: 'Open Sans', verdana, arial, sans-serif; font-size: 12px; fill: rgb(42, 63, 95); fill-opacity: 1; white-space: pre; opacity: 1;" transform="translate(227.21,0)">50</text></g><g class="xtick"><text text-anchor="middle" x="0" y="433" style="font-family: 'Open Sans', verdana, arial, sans-serif; font-size: 12px; fill: rgb(42, 63, 95); fill-opacity: 1; white-space: pre; opacity: 1;" transform="translate(374.41,0)">100</text></g><g class="xtick"><text text-anchor="middle" x="0" y="433" style="font-family: 'Open Sans', verdana, arial, sans-serif; font-size: 12px; fill: rgb(42, 63, 95); fill-opacity: 1; white-space: pre; opacity: 1;" transform="translate(521.62,0)">150</text></g></g><g class="yaxislayer-above"><g class="ytick"><text text-anchor="end" x="79" y="4.199999999999999" transform="translate(0,415.63)" style="font-family: 'Open Sans', verdana, arial, sans-serif; font-size: 12px; fill: rgb(42, 63, 95); fill-opacity: 1; white-space: pre; opacity: 1;">18k</text></g><g class="ytick"><text text-anchor="end" x="79" y="4.199999999999999" style="font-family: 'Open Sans', verdana, arial, sans-serif; font-size: 12px; fill: rgb(42, 63, 95); fill-opacity: 1; white-space: pre; opacity: 1;" transform="translate(0,365.87)">20k</text></g><g class="ytick"><text text-anchor="end" x="79" y="4.199999999999999" style="font-family: 'Open Sans', verdana, arial, sans-serif; font-size: 12px; fill: rgb(42, 63, 95); fill-opacity: 1; white-space: pre; opacity: 1;" transform="translate(0,316.11)">22k</text></g><g class="ytick"><text text-anchor="end" x="79" y="4.199999999999999" style="font-family: 'Open Sans', verdana, arial, sans-serif; font-size: 12px; fill: rgb(42, 63, 95); fill-opacity: 1; white-space: pre; opacity: 1;" transform="translate(0,266.35)">24k</text></g><g class="ytick"><text text-anchor="end" x="79" y="4.199999999999999" style="font-family: 'Open Sans', verdana, arial, sans-serif; font-size: 12px; fill: rgb(42, 63, 95); fill-opacity: 1; white-space: pre; opacity: 1;" transform="translate(0,216.59)">26k</text></g><g class="ytick"><text text-anchor="end" x="79" y="4.199999999999999" style="font-family: 'Open Sans', verdana, arial, sans-serif; font-size: 12px; fill: rgb(42, 63, 95); fill-opacity: 1; white-space: pre; opacity: 1;" transform="translate(0,166.82999999999998)">28k</text></g><g class="ytick"><text text-anchor="end" x="79" y="4.199999999999999" style="font-family: 'Open Sans', verdana, arial, sans-serif; font-size: 12px; fill: rgb(42, 63, 95); fill-opacity: 1; white-space: pre; opacity: 1;" transform="translate(0,117.06)">30k</text></g><g class="ytick"><text text-anchor="end" x="79" y="4.199999999999999" style="font-family: 'Open Sans', verdana, arial, sans-serif; font-size: 12px; fill: rgb(42, 63, 95); fill-opacity: 1; white-space: pre; opacity: 1;" transform="translate(0,67.3)">32k</text></g></g><g class="overaxes-above"/></g></g><g class="polarlayer"/><g class="smithlayer"/><g class="ternarylayer"/><g class="geolayer"/><g class="funnelarealayer"/><g class="pielayer"/><g class="iciclelayer"/><g class="treemaplayer"/><g class="sunburstlayer"/><g class="glimages"/><defs id="topdefs-fb884b"><g class="clips"/><clipPath id="legendfb884b"><rect width="70" height="67" x="0" y="0"/></clipPath></defs><g class="layer-above"><g class="imagelayer"/><g class="shapelayer"/></g><g class="infolayer"><g class="legend" pointer-events="all" transform="translate(617.54,60)"><rect class="bg" shape-rendering="crispEdges" style="stroke: rgb(68, 68, 68); stroke-opacity: 1; fill: rgb(255, 255, 255); fill-opacity: 1; stroke-width: 0px;" width="70" height="67" x="0" y="0"/><g class="scrollbox" transform="" clip-path="url(#legendfb884b)"><text class="legendtitletext" text-anchor="start" x="2" y="18.2" style="font-family: 'Open Sans', verdana, arial, sans-serif; font-size: 14px; fill: rgb(42, 63, 95); fill-opacity: 1; white-space: pre;">variable</text><g class="groups" transform=""><g class="traces" transform="translate(0,32.7)" style="opacity: 1;"><text class="legendtext" text-anchor="start" x="40" y="4.680000000000001" style="font-family: 'Open Sans', verdana, arial, sans-serif; font-size: 12px; fill: rgb(42, 63, 95); fill-opacity: 1; white-space: pre;">act</text><g class="layers" style="opacity: 1;"><g class="legendfill"/><g class="legendlines"><path class="js-line" d="M5,0h30" style="fill: none; stroke: rgb(99, 110, 250); stroke-opacity: 1; stroke-width: 2px;"/></g><g class="legendsymbols"><g class="legendpoints"/></g></g><rect class="legendtoggle" x="0" y="-9.5" width="64.03125" height="19" style="fill: rgb(0, 0, 0); fill-opacity: 0;"/></g></g><g class="groups" transform=""><g class="traces" transform="translate(0,51.7)" style="opacity: 1;"><text class="legendtext" text-anchor="start" x="40" y="4.680000000000001" style="font-family: 'Open Sans', verdana, arial, sans-serif; font-size: 12px; fill: rgb(42, 63, 95); fill-opacity: 1; white-space: pre;">pred</text><g class="layers" style="opacity: 1;"><g class="legendfill"/><g class="legendlines"><path class="js-line" d="M5,0h30" style="fill: none; stroke: rgb(239, 85, 59); stroke-opacity: 1; stroke-width: 2px;"/></g><g class="legendsymbols"><g class="legendpoints"/></g></g><rect class="legendtoggle" x="0" y="-9.5" width="64.03125" height="19" style="fill: rgb(0, 0, 0); fill-opacity: 0;"/></g></g></g><rect class="scrollbar" rx="20" ry="3" width="0" height="0" style="fill: rgb(128, 139, 164); fill-opacity: 1;" x="0" y="0"/></g><g class="g-gtitle"><text class="gtitle" x="35" y="30" text-anchor="start" dy="0em" style="font-family: 'Open Sans', verdana, arial, sans-serif; font-size: 17px; fill: rgb(42, 63, 95); opacity: 1; font-weight: normal; white-space: pre;">ETRE's Six-month Traffic Flow Prediction</text></g><g class="g-xtitle"><text class="xtitle" x="343.5" y="460.8" text-anchor="middle" style="font-family: 'Open Sans', verdana, arial, sans-serif; font-size: 14px; fill: rgb(42, 63, 95); opacity: 1; font-weight: normal; white-space: pre;">Forecast Period(January-June, 2022)</text></g><g class="g-ytitle"><text class="ytitle" transform="rotate(-90,34.840625,240)" x="34.840625" y="240" text-anchor="middle" style="font-family: 'Open Sans', verdana, arial, sans-serif; font-size: 14px; fill: rgb(42, 63, 95); opacity: 1; font-weight: normal; white-space: pre;">Traffic Volume</text></g></g></svg>